# xmcd
#
# Track frame offsets:
#	150
#	12887
#	26189
#	39834
#	52655
#	65957
#	83567
#	96200
#	108463
#	121369
#	135248
#	149043
#
# Disc length: 2129 seconds
#
# Revision: 1
# Processed by: cddbd v1.5.2PL0 Copyright (c) Steve Scherf et al.
# Submitted via: audiograbber 1.83.01
#
DISCID=9d084f0c
DTITLE=Ray Charles - Chante et joue le blues
DYEAR=1900
DGENRE=Blues
TTITLE0=Early In The Morning
TTITLE1=Hard Times
TTITLE2=The Midnight Hour
TTITLE3=Feelin' Sad
TTITLE4=Ray's Blues
TTITLE5=Rock House
TTITLE6=I Wonder Who
TTITLE7=Nobody Cares
TTITLE8=Mr.Charles' Blues
TTITLE9=Some Day Baby
TTITLE10=I Believe To My Soul
TTITLE11=A Bit Of Soul
EXTD=
EXTT0=
EXTT1=
EXTT2=
EXTT3=
EXTT4=
EXTT5=
EXTT6=
EXTT7=
EXTT8=
EXTT9=
EXTT10=
EXTT11=
PLAYORDER=
